<svg version="1.1" id="Layer_1" xmlns="http://www.w3.org/2000/svg" xmlns:xlink="http://www.w3.org/1999/xlink" x="0px" y="0px"
	 width="100%" height="200px" viewBox="0 0 500 500" enable-background="new 0 0 500 500" xml:space="preserve">
<path fill="#FFFFFF" opacity="1.000000" stroke="none" 
	d="
M266.000000,501.000000 
	C177.333359,501.000000 89.166710,501.000000 1.000047,501.000000 
	C1.000031,334.333405 1.000031,167.666794 1.000016,1.000137 
	C167.666565,1.000091 334.333130,1.000091 500.999756,1.000046 
	C500.999847,167.666519 500.999847,334.333038 500.999939,500.999786 
	C422.833344,501.000000 344.666656,501.000000 266.000000,501.000000 
M60.102028,239.946930 
	C57.306255,237.985825 54.510483,236.024719 51.427509,233.862152 
	C49.708088,235.997772 47.892616,238.252701 45.934208,240.685165 
	C53.202518,249.248123 62.267040,250.937881 72.359276,249.066345 
	C79.984390,247.652328 84.352905,242.505142 84.761826,234.943161 
	C85.156265,227.648743 81.468384,222.334229 74.075836,220.043228 
	C70.435905,218.915176 66.645615,218.276566 62.931969,217.380783 
	C59.767448,216.617447 57.162529,215.078995 57.449802,211.387390 
	C57.742294,207.628647 60.899380,206.156982 63.873547,206.443069 
	C68.601883,206.897888 73.231117,208.383026 78.692909,209.609985 
	C79.558052,208.405075 81.153656,206.182846 82.753937,203.954102 
	C76.589790,197.695511 69.350769,197.336258 61.922520,197.976807 
	C53.907341,198.667938 48.461456,203.523895 47.762112,210.292709 
	C46.931076,218.336060 50.613010,223.529114 59.082527,226.044327 
	C62.741112,227.130814 66.495049,227.897537 70.149368,228.996689 
	C73.265137,229.933868 75.292778,232.424469 74.161430,235.387985 
	C73.319618,237.593109 70.900757,239.906708 68.669556,240.672760 
	C66.398529,241.452469 63.497574,240.397430 60.102028,239.946930 
M248.027573,219.360123 
	C244.622543,218.589050 240.980377,218.320694 237.897491,216.866577 
	C235.909164,215.928741 233.378052,213.089218 233.579529,211.398636 
	C233.791336,209.621368 236.992767,206.850189 238.848572,206.880920 
	C243.743820,206.961990 248.617828,208.326141 253.500305,209.179413 
	C253.535004,209.716599 253.569717,210.253784 253.604431,210.790970 
	C255.200409,208.558777 256.796387,206.326599 258.522400,203.912552 
	C251.636154,197.130859 243.609665,196.861755 235.398941,198.289337 
	C228.062164,199.564987 223.485977,204.877747 223.196899,211.506439 
	C222.898819,218.341217 226.724091,223.580353 233.989212,225.886719 
	C237.626160,227.041306 241.400803,227.754715 245.083832,228.773773 
	C248.561554,229.736023 250.554214,231.891159 250.014313,235.724060 
	C249.498581,239.385376 246.821121,240.705719 243.637115,240.872055 
	C241.360779,240.990967 238.798981,240.932755 236.806152,240.005020 
	C233.459625,238.447037 230.464600,236.134033 227.051529,233.967194 
	C225.360596,236.014603 223.587112,238.161972 221.882965,240.225388 
	C226.894714,247.643219 236.556244,251.229446 246.397903,249.562515 
	C255.165924,248.077438 259.879120,243.319992 260.558350,235.269043 
	C261.200714,227.655502 257.325989,222.522156 248.027573,219.360123 
M317.943329,202.586136 
	C317.943329,200.322174 317.943329,198.058197 317.943329,195.642944 
	C314.384949,195.642944 311.486572,195.642944 308.414795,195.642944 
	C308.414795,213.503632 308.414795,231.036453 308.414795,248.748077 
	C311.624969,248.748077 314.531128,248.748077 318.007080,248.748077 
	C318.007080,241.383133 317.805328,234.267883 318.070435,227.170074 
	C318.285095,221.423050 321.790375,218.191650 326.820160,218.396301 
	C331.292603,218.578278 332.937927,220.927475 332.967896,227.339127 
	C333.001068,234.436066 332.975494,241.533295 332.975494,248.699905 
	C336.475189,248.699905 339.369690,248.699905 342.177155,248.699905 
	C342.177155,238.955734 342.690582,229.489059 342.005585,220.109894 
	C341.507782,213.294067 336.807098,209.592331 330.015137,210.247589 
	C325.884155,210.646133 321.930389,212.882172 317.943298,214.276611 
	C317.943298,211.186905 317.943298,207.366577 317.943329,202.586136 
M90.437035,239.259857 
	C90.914085,243.946320 92.928940,247.561035 97.674355,249.003098 
	C103.816483,250.869568 109.117165,249.608322 113.004105,244.139542 
	C117.266663,249.655640 120.758537,250.539536 127.606339,247.433594 
	C126.640869,245.450363 125.749214,243.422485 124.682327,241.491409 
	C123.878380,240.036240 122.147247,238.752960 122.048965,237.310059 
	C121.710289,232.337982 121.998405,227.327179 121.873444,222.335480 
	C121.753868,217.558914 120.178780,213.504501 115.423439,211.432144 
	C107.873772,208.142044 97.484421,210.563644 91.490799,217.219910 
	C92.756203,219.117966 94.075592,221.097015 94.591621,221.871048 
	C99.812477,220.396042 104.086136,218.916443 108.483887,218.137085 
	C109.586784,217.941620 111.947151,219.845093 112.159309,221.058487 
	C112.361916,222.217255 110.802231,224.417618 109.515701,224.951355 
	C106.795853,226.079803 103.738625,226.378113 100.838028,227.091156 
	C93.674423,228.852142 91.270409,231.492493 90.437035,239.259857 
M379.592865,247.286514 
	C387.494507,241.445099 390.258850,232.392395 387.167175,222.482010 
	C384.567078,214.147186 377.919037,209.744629 368.419281,210.066483 
	C359.806152,210.358307 353.069305,215.350906 351.400482,223.458939 
	C349.736572,231.543045 349.949219,239.624237 356.921814,245.481339 
	C363.590576,251.083237 371.206421,250.950974 379.592865,247.286514 
M411.869873,249.787750 
	C413.032654,249.797974 414.200531,249.883759 415.357422,249.806290 
	C423.542450,249.258179 429.554169,244.717880 431.752045,237.467728 
	C434.501251,228.399048 432.022797,218.419617 425.858215,213.736191 
	C417.467010,207.361115 403.732361,209.353378 398.304535,217.732910 
	C390.135468,230.344406 396.473267,246.270294 411.869873,249.787750 
M184.278412,210.952988 
	C175.637939,208.878250 168.031494,210.413834 161.529694,217.023865 
	C163.111176,219.293320 164.397858,221.139725 165.025955,222.041046 
	C169.683578,220.510178 173.579697,218.822708 177.646835,218.106781 
	C179.131714,217.845428 181.023117,219.893448 182.729050,220.887894 
	C181.340302,222.446426 180.237244,224.707565 178.501740,225.413269 
	C175.163086,226.770859 171.363693,226.955353 167.941406,228.156403 
	C162.372269,230.110840 160.306686,233.804230 160.830444,239.789108 
	C161.298843,245.141586 164.339111,248.464340 169.880341,249.489792 
	C175.461990,250.522751 180.051453,248.905106 183.235687,243.968979 
	C187.357437,249.595764 190.303802,250.448685 197.143677,247.880814 
	C197.007050,246.037811 196.862183,244.083817 196.692429,241.793976 
	C192.415726,242.059860 191.861023,239.542450 192.021774,236.098679 
	C192.238647,231.453445 192.089508,226.789581 192.046783,222.134171 
	C191.999954,217.032440 190.005447,213.133942 184.278412,210.952988 
M280.644257,219.698486 
	C286.176941,216.948135 290.546417,218.533447 293.798859,223.444489 
	C301.554565,219.155411 301.926636,216.436203 295.543518,212.476822 
	C286.787415,207.045517 273.649719,210.435806 268.975098,219.333008 
	C263.467316,229.815964 267.190277,243.791443 276.824402,247.991898 
	C283.293640,250.812469 289.880402,250.860947 295.893982,246.735489 
	C302.566559,242.157928 302.285858,238.877457 295.209259,235.342911 
	C294.955627,235.216217 294.583466,235.326782 294.066162,235.326782 
	C293.323181,236.440842 292.647797,237.792664 291.666748,238.864838 
	C287.743286,243.152893 279.908203,242.051376 277.964478,236.611160 
	C275.961395,231.004745 275.447906,225.188278 280.644257,219.698486 
M216.072525,249.646744 
	C222.006180,248.023773 216.935486,244.280762 218.160645,241.241028 
	C213.446381,242.272186 212.857880,239.815506 212.888596,236.458542 
	C212.978500,226.631149 212.920242,216.802383 212.920090,206.974167 
	C212.920029,203.227219 212.920090,199.480255 212.920090,195.805847 
	C209.261780,195.805847 206.342300,195.805847 203.205719,195.805847 
	C203.205719,210.449982 203.023453,224.763794 203.279221,239.069763 
	C203.416138,246.727768 206.884537,249.497070 216.072525,249.646744 
M441.123535,227.494293 
	C441.147644,231.650269 440.945831,235.822662 441.246643,239.958511 
	C441.749023,246.865723 446.823578,250.861847 453.523682,249.704559 
	C454.711365,249.499420 456.698608,248.124786 456.625336,247.483398 
	C456.387390,245.400406 455.621643,241.825592 454.597504,241.658752 
	C450.605804,241.008484 450.942932,238.471130 450.943298,235.787750 
	C450.944916,223.983566 450.953949,212.179367 450.931000,200.375229 
	C450.927917,198.794296 450.757782,197.213699 450.669983,195.717285 
	C447.221283,195.717285 444.325439,195.717285 441.123627,195.717285 
	C441.123627,206.242264 441.123627,216.369385 441.123535,227.494293 
M133.151199,222.533554 
	C133.151199,231.293488 133.151199,240.053421 133.151199,248.770813 
	C136.711136,248.770813 139.639679,248.770813 142.927719,248.770813 
	C142.927719,242.735367 142.869476,236.943497 142.940750,231.153214 
	C143.061829,221.314362 145.760773,218.883362 155.789505,219.634933 
	C156.263260,216.928925 156.739456,214.209061 157.221008,211.458481 
	C151.341949,209.422943 146.819305,210.801773 143.046921,215.914886 
	C142.722137,213.839722 142.505325,212.454437 142.312363,211.221527 
	C139.065781,211.221527 136.179047,211.221527 133.151199,211.221527 
	C133.151199,214.899307 133.151199,218.223587 133.151199,222.533554 
z"/>
<path fill="#070707" opacity="1.000000" stroke="none" 
	d="
M60.487236,240.046356 
	C63.497574,240.397430 66.398529,241.452469 68.669556,240.672760 
	C70.900757,239.906708 73.319618,237.593109 74.161430,235.387985 
	C75.292778,232.424469 73.265137,229.933868 70.149368,228.996689 
	C66.495049,227.897537 62.741112,227.130814 59.082527,226.044327 
	C50.613010,223.529114 46.931076,218.336060 47.762112,210.292709 
	C48.461456,203.523895 53.907341,198.667938 61.922520,197.976807 
	C69.350769,197.336258 76.589790,197.695511 82.753937,203.954102 
	C81.153656,206.182846 79.558052,208.405075 78.692909,209.609985 
	C73.231117,208.383026 68.601883,206.897888 63.873547,206.443069 
	C60.899380,206.156982 57.742294,207.628647 57.449802,211.387390 
	C57.162529,215.078995 59.767448,216.617447 62.931969,217.380783 
	C66.645615,218.276566 70.435905,218.915176 74.075836,220.043228 
	C81.468384,222.334229 85.156265,227.648743 84.761826,234.943161 
	C84.352905,242.505142 79.984390,247.652328 72.359276,249.066345 
	C62.267040,250.937881 53.202518,249.248123 45.934208,240.685165 
	C47.892616,238.252701 49.708088,235.997772 51.427509,233.862152 
	C54.510483,236.024719 57.306255,237.985825 60.487236,240.046356 
z"/>
<path fill="#5775FF" opacity="1.000000" stroke="none" 
	d="
M248.396759,219.503143 
	C257.325989,222.522156 261.200714,227.655502 260.558350,235.269043 
	C259.879120,243.319992 255.165924,248.077438 246.397903,249.562515 
	C236.556244,251.229446 226.894714,247.643219 221.882965,240.225388 
	C223.587112,238.161972 225.360596,236.014603 227.051529,233.967194 
	C230.464600,236.134033 233.459625,238.447037 236.806152,240.005020 
	C238.798981,240.932755 241.360779,240.990967 243.637115,240.872055 
	C246.821121,240.705719 249.498581,239.385376 250.014313,235.724060 
	C250.554214,231.891159 248.561554,229.736023 245.083832,228.773773 
	C241.400803,227.754715 237.626160,227.041306 233.989212,225.886719 
	C226.724091,223.580353 222.898819,218.341217 223.196899,211.506439 
	C223.485977,204.877747 228.062164,199.564987 235.398941,198.289337 
	C243.609665,196.861755 251.636154,197.130859 258.522400,203.912552 
	C256.796387,206.326599 255.200409,208.558777 253.604431,210.790970 
	C253.569717,210.253784 253.535004,209.716599 253.500305,209.179413 
	C248.617828,208.326141 243.743820,206.961990 238.848572,206.880920 
	C236.992767,206.850189 233.791336,209.621368 233.579529,211.398636 
	C233.378052,213.089218 235.909164,215.928741 237.897491,216.866577 
	C240.980377,218.320694 244.622543,218.589050 248.396759,219.503143 
z"/>
<path fill="#5775FF" opacity="1.000000" stroke="none" 
	d="
M317.943298,203.066193 
	C317.943298,207.366577 317.943298,211.186905 317.943298,214.276611 
	C321.930389,212.882172 325.884155,210.646133 330.015137,210.247589 
	C336.807098,209.592331 341.507782,213.294067 342.005585,220.109894 
	C342.690582,229.489059 342.177155,238.955734 342.177155,248.699905 
	C339.369690,248.699905 336.475189,248.699905 332.975494,248.699905 
	C332.975494,241.533295 333.001068,234.436066 332.967896,227.339127 
	C332.937927,220.927475 331.292603,218.578278 326.820160,218.396301 
	C321.790375,218.191650 318.285095,221.423050 318.070435,227.170074 
	C317.805328,234.267883 318.007080,241.383133 318.007080,248.748077 
	C314.531128,248.748077 311.624969,248.748077 308.414795,248.748077 
	C308.414795,231.036453 308.414795,213.503632 308.414795,195.642944 
	C311.486572,195.642944 314.384949,195.642944 317.943329,195.642944 
	C317.943329,198.058197 317.943329,200.322174 317.943298,203.066193 
z"/>
<path fill="#070707" opacity="1.000000" stroke="none" 
	d="
M90.409966,238.865479 
	C91.270409,231.492493 93.674423,228.852142 100.838028,227.091156 
	C103.738625,226.378113 106.795853,226.079803 109.515701,224.951355 
	C110.802231,224.417618 112.361916,222.217255 112.159309,221.058487 
	C111.947151,219.845093 109.586784,217.941620 108.483887,218.137085 
	C104.086136,218.916443 99.812477,220.396042 94.591621,221.871048 
	C94.075592,221.097015 92.756203,219.117966 91.490799,217.219910 
	C97.484421,210.563644 107.873772,208.142044 115.423439,211.432144 
	C120.178780,213.504501 121.753868,217.558914 121.873444,222.335480 
	C121.998405,227.327179 121.710289,232.337982 122.048965,237.310059 
	C122.147247,238.752960 123.878380,240.036240 124.682327,241.491409 
	C125.749214,243.422485 126.640869,245.450363 127.606339,247.433594 
	C120.758537,250.539536 117.266663,249.655640 113.004105,244.139542 
	C109.117165,249.608322 103.816483,250.869568 97.674355,249.003098 
	C92.928940,247.561035 90.914085,243.946320 90.409966,238.865479 
M109.091202,241.672806 
	C113.105927,238.836639 113.044769,234.738297 112.645790,230.377808 
	C109.359619,231.257965 106.029190,231.751663 103.096504,233.106384 
	C101.666618,233.766907 100.302254,235.974274 100.160568,237.591187 
	C100.038712,238.982071 101.368477,241.237137 102.648079,241.827408 
	C104.250465,242.566589 106.457397,241.995224 109.091202,241.672806 
z"/>
<path fill="#5775FF" opacity="1.000000" stroke="none" 
	d="
M379.273682,247.487885 
	C371.206421,250.950974 363.590576,251.083237 356.921814,245.481339 
	C349.949219,239.624237 349.736572,231.543045 351.400482,223.458939 
	C353.069305,215.350906 359.806152,210.358307 368.419281,210.066483 
	C377.919037,209.744629 384.567078,214.147186 387.167175,222.482010 
	C390.258850,232.392395 387.494507,241.445099 379.273682,247.487885 
M376.068848,238.510757 
	C376.598389,233.838455 377.836273,229.106750 377.450836,224.511185 
	C377.092102,220.233780 373.353333,218.175140 369.067749,218.273987 
	C364.928894,218.369446 362.132843,220.701996 361.266388,224.733322 
	C360.749908,227.136154 360.731506,229.705887 360.871063,232.179047 
	C361.364410,240.923721 368.144806,244.094391 376.068848,238.510757 
z"/>
<path fill="#5775FF" opacity="1.000000" stroke="none" 
	d="
M411.448547,249.745361 
	C396.473267,246.270294 390.135468,230.344406 398.304535,217.732910 
	C403.732361,209.353378 417.467010,207.361115 425.858215,213.736191 
	C432.022797,218.419617 434.501251,228.399048 431.752045,237.467728 
	C429.554169,244.717880 423.542450,249.258179 415.357422,249.806290 
	C414.200531,249.883759 413.032654,249.797974 411.448547,249.745361 
M409.870972,219.158829 
	C408.317474,221.760757 405.950989,224.200546 405.392487,227.000916 
	C404.449493,231.729218 404.398193,237.278778 409.186554,239.937836 
	C411.693359,241.329910 416.322266,241.255981 418.815125,239.811615 
	C423.532623,237.078278 423.269073,231.632355 422.577423,226.805893 
	C421.562866,219.726654 417.699768,217.326126 409.870972,219.158829 
z"/>
<path fill="#070707" opacity="1.000000" stroke="none" 
	d="
M184.666077,211.042999 
	C190.005447,213.133942 191.999954,217.032440 192.046783,222.134171 
	C192.089508,226.789581 192.238647,231.453445 192.021774,236.098679 
	C191.861023,239.542450 192.415726,242.059860 196.692429,241.793976 
	C196.862183,244.083817 197.007050,246.037811 197.143677,247.880814 
	C190.303802,250.448685 187.357437,249.595764 183.235687,243.968979 
	C180.051453,248.905106 175.461990,250.522751 169.880341,249.489792 
	C164.339111,248.464340 161.298843,245.141586 160.830444,239.789108 
	C160.306686,233.804230 162.372269,230.110840 167.941406,228.156403 
	C171.363693,226.955353 175.163086,226.770859 178.501740,225.413269 
	C180.237244,224.707565 181.340302,222.446426 182.729050,220.887894 
	C181.023117,219.893448 179.131714,217.845428 177.646835,218.106781 
	C173.579697,218.822708 169.683578,220.510178 165.025955,222.041046 
	C164.397858,221.139725 163.111176,219.293320 161.529694,217.023865 
	C168.031494,210.413834 175.637939,208.878250 184.666077,211.042999 
M170.160614,236.740494 
	C170.031204,241.422546 172.697571,242.950241 176.859100,242.392105 
	C181.833511,241.724945 183.748138,237.458099 182.239777,229.448120 
	C178.103638,231.721176 174.218170,233.856491 170.160614,236.740494 
z"/>
<path fill="#5775FF" opacity="1.000000" stroke="none" 
	d="
M280.312012,219.947952 
	C275.447906,225.188278 275.961395,231.004745 277.964478,236.611160 
	C279.908203,242.051376 287.743286,243.152893 291.666748,238.864838 
	C292.647797,237.792664 293.323181,236.440842 294.066162,235.326782 
	C294.583466,235.326782 294.955627,235.216217 295.209259,235.342911 
	C302.285858,238.877457 302.566559,242.157928 295.893982,246.735489 
	C289.880402,250.860947 283.293640,250.812469 276.824402,247.991898 
	C267.190277,243.791443 263.467316,229.815964 268.975098,219.333008 
	C273.649719,210.435806 286.787415,207.045517 295.543518,212.476822 
	C301.926636,216.436203 301.554565,219.155411 293.798859,223.444489 
	C290.546417,218.533447 286.176941,216.948135 280.312012,219.947952 
z"/>
<path fill="#0C0C0C" opacity="1.000000" stroke="none" 
	d="
M215.661926,249.702911 
	C206.884537,249.497070 203.416138,246.727768 203.279221,239.069763 
	C203.023453,224.763794 203.205719,210.449982 203.205719,195.805847 
	C206.342300,195.805847 209.261780,195.805847 212.920090,195.805847 
	C212.920090,199.480255 212.920029,203.227219 212.920090,206.974167 
	C212.920242,216.802383 212.978500,226.631149 212.888596,236.458542 
	C212.857880,239.815506 213.446381,242.272186 218.160645,241.241028 
	C216.935486,244.280762 222.006180,248.023773 215.661926,249.702911 
z"/>
<path fill="#5775FF" opacity="1.000000" stroke="none" 
	d="
M441.123596,226.995392 
	C441.123627,216.369385 441.123627,206.242264 441.123627,195.717285 
	C444.325439,195.717285 447.221283,195.717285 450.669983,195.717285 
	C450.757782,197.213699 450.927917,198.794296 450.931000,200.375229 
	C450.953949,212.179367 450.944916,223.983566 450.943298,235.787750 
	C450.942932,238.471130 450.605804,241.008484 454.597504,241.658752 
	C455.621643,241.825592 456.387390,245.400406 456.625336,247.483398 
	C456.698608,248.124786 454.711365,249.499420 453.523682,249.704559 
	C446.823578,250.861847 441.749023,246.865723 441.246643,239.958511 
	C440.945831,235.822662 441.147644,231.650269 441.123596,226.995392 
z"/>
<path fill="#0C0C0C" opacity="1.000000" stroke="none" 
	d="
M133.151199,222.040710 
	C133.151199,218.223587 133.151199,214.899307 133.151199,211.221527 
	C136.179047,211.221527 139.065781,211.221527 142.312363,211.221527 
	C142.505325,212.454437 142.722137,213.839722 143.046921,215.914886 
	C146.819305,210.801773 151.341949,209.422943 157.221008,211.458481 
	C156.739456,214.209061 156.263260,216.928925 155.789505,219.634933 
	C145.760773,218.883362 143.061829,221.314362 142.940750,231.153214 
	C142.869476,236.943497 142.927719,242.735367 142.927719,248.770813 
	C139.639679,248.770813 136.711136,248.770813 133.151199,248.770813 
	C133.151199,240.053421 133.151199,231.293488 133.151199,222.040710 
z"/>
<path fill="#F1F1F1" opacity="1.000000" stroke="none" 
	d="
M108.747292,241.831177 
	C106.457397,241.995224 104.250465,242.566589 102.648079,241.827408 
	C101.368477,241.237137 100.038712,238.982071 100.160568,237.591187 
	C100.302254,235.974274 101.666618,233.766907 103.096504,233.106384 
	C106.029190,231.751663 109.359619,231.257965 112.645790,230.377808 
	C113.044769,234.738297 113.105927,238.836639 108.747292,241.831177 
z"/>
<path fill="#FFFFFF" opacity="1.000000" stroke="none" 
	d="
M375.802002,238.819763 
	C368.144806,244.094391 361.364410,240.923721 360.871063,232.179047 
	C360.731506,229.705887 360.749908,227.136154 361.266388,224.733322 
	C362.132843,220.701996 364.928894,218.369446 369.067749,218.273987 
	C373.353333,218.175140 377.092102,220.233780 377.450836,224.511185 
	C377.836273,229.106750 376.598389,233.838455 375.802002,238.819763 
z"/>
<path fill="#FFFFFF" opacity="1.000000" stroke="none" 
	d="
M410.240845,219.038071 
	C417.699768,217.326126 421.562866,219.726654 422.577423,226.805893 
	C423.269073,231.632355 423.532623,237.078278 418.815125,239.811615 
	C416.322266,241.255981 411.693359,241.329910 409.186554,239.937836 
	C404.398193,237.278778 404.449493,231.729218 405.392487,227.000916 
	C405.950989,224.200546 408.317474,221.760757 410.240845,219.038071 
z"/>
<path fill="#F1F1F1" opacity="1.000000" stroke="none" 
	d="
M170.246643,236.366150 
	C174.218170,233.856491 178.103638,231.721176 182.239777,229.448120 
	C183.748138,237.458099 181.833511,241.724945 176.859100,242.392105 
	C172.697571,242.950241 170.031204,241.422546 170.246643,236.366150 
z"/>
</svg>