<svg version="1.1" id="Layer_1" xmlns="http://www.w3.org/2000/svg" xmlns:xlink="http://www.w3.org/1999/xlink" x="0px" y="0px"
	 width="214" height="66" viewBox="0 0 327 372" enable-background="new 0 0 327 372" xml:space="preserve">
<path fill="#FDFDFD" opacity="1.000000" stroke="none" 
	d="
M157.000000,373.000000 
	C105.016724,373.000000 53.033447,373.000000 1.025087,373.000000 
	C1.025087,249.056610 1.025087,125.113213 1.025087,1.084909 
	C109.908279,1.084909 218.816635,1.084909 327.862488,1.084909 
	C327.862488,124.999901 327.862488,248.999924 327.862488,373.000000 
	C283.908966,373.000000 239.923141,373.000000 195.296570,372.649170 
	C193.840912,369.442810 193.028900,366.586426 192.210510,363.731842 
	C190.369553,357.310486 186.065033,354.885895 179.495682,355.230621 
	C173.372803,355.551910 167.216385,355.218933 161.074646,355.199921 
	C155.089676,355.181427 149.104599,355.195892 143.119553,355.195892 
	C143.083588,355.697876 143.047623,356.199829 143.011658,356.701813 
	C149.317749,360.747223 155.495758,364.900787 157.000000,373.000000 
M130.208679,209.308426 
	C128.157349,205.313431 126.017235,201.360947 124.077850,197.312317 
	C121.805779,192.569199 117.993896,190.184677 112.911842,190.439285 
	C109.304375,190.620056 105.386871,190.928406 102.211769,192.444656 
	C70.935440,207.380447 53.029758,232.149231 48.725113,266.581024 
	C48.028267,272.154907 49.367950,273.580261 54.797241,273.896942 
	C80.066010,275.370850 105.325172,277.123169 130.613602,278.121704 
	C178.284241,280.003906 225.867706,277.919830 273.380524,273.926544 
	C279.142517,273.442261 280.407043,272.063019 279.482239,266.243134 
	C278.544861,260.344147 277.680481,254.339554 275.825043,248.696579 
	C267.217804,222.519302 250.514786,203.333313 225.246078,191.993301 
	C214.747513,187.281784 208.231888,189.666061 202.961151,199.722870 
	C191.685699,221.236969 180.504837,242.800613 169.241547,264.321075 
	C166.224213,270.086212 163.567734,270.298645 159.464981,265.214294 
	C158.741760,264.318085 158.181824,263.272705 157.648392,262.243378 
	C148.617569,244.818069 139.602875,227.384415 130.208679,209.308426 
M190.421585,7.039665 
	C189.274460,6.836067 188.124466,6.647233 186.980637,6.426588 
	C175.380905,4.188995 163.912659,1.651798 151.881577,4.140439 
	C125.803833,9.534645 99.634773,14.489173 73.491501,19.563980 
	C62.107941,21.773705 50.695942,23.836945 37.779732,26.250168 
	C40.469604,27.720324 41.766838,28.774710 43.242908,29.183775 
	C62.413960,34.496689 81.574326,39.855145 100.812927,44.914894 
	C113.976082,48.376801 127.378929,50.965973 140.452850,54.718079 
	C154.853500,58.850952 168.927811,60.500664 183.602036,55.742451 
	C195.236816,51.969799 207.265625,49.407864 219.129532,46.347317 
	C237.659348,41.567154 256.201508,36.834835 274.729828,32.048855 
	C279.647247,30.778646 284.533142,29.386448 289.433533,28.050264 
	C289.456757,27.474836 289.479950,26.899406 289.503143,26.323978 
	C256.758453,19.941055 224.013748,13.558132 190.421585,7.039665 
M202.424637,157.964325 
	C225.757355,140.103333 230.567749,107.564621 223.442276,90.610046 
	C223.123138,90.677330 222.760788,90.670403 222.493210,90.826225 
	C221.777939,91.242760 221.098373,91.721817 220.413345,92.188858 
	C194.610046,109.781090 166.437607,114.190910 136.674896,105.682777 
	C126.792313,102.857697 117.685623,97.182587 108.400940,92.462814 
	C104.157692,90.305801 103.366302,90.295723 102.600204,95.039169 
	C102.150375,97.824318 101.910988,100.657814 101.785988,103.478836 
	C100.607819,130.066147 111.372421,150.830734 134.514603,163.484375 
	C157.432190,176.015228 180.376175,173.088638 202.424637,157.964325 
M131.382706,352.280487 
	C138.422333,349.777557 141.088593,346.234222 140.484100,339.835754 
	C139.237747,339.835754 137.937241,339.737976 136.655273,339.850830 
	C123.387619,341.018494 110.121704,342.206421 96.857750,343.415558 
	C77.458893,345.183899 58.061462,346.968048 38.664612,348.758362 
	C31.171091,349.449982 24.934233,346.966095 19.890583,341.417358 
	C9.344132,329.814728 10.576642,304.704346 22.205595,294.204285 
	C28.267538,288.730865 35.873547,288.633270 41.475048,294.236115 
	C46.091175,298.853333 48.016048,304.635620 47.280838,311.109894 
	C46.523457,317.779327 42.215336,322.721375 37.523472,322.750183 
	C33.010296,322.777863 29.562035,318.805206 28.190145,311.975769 
	C28.059299,311.324371 27.944342,310.656830 27.937706,309.995636 
	C27.902014,306.438507 25.892353,305.975525 22.642597,306.739807 
	C21.820724,312.158966 20.491476,317.550262 20.282066,322.984741 
	C19.799759,335.501099 26.666809,342.410034 39.169277,342.008545 
	C46.974934,341.757843 54.758644,340.755341 62.546364,340.027710 
	C87.577255,337.688995 112.606804,335.335724 137.633591,332.953552 
	C143.200684,332.423645 144.775757,330.678314 145.070786,324.992371 
	C145.638794,314.044983 143.929169,303.475464 140.291870,293.118713 
	C138.453064,287.883026 135.418015,285.445099 129.734894,285.181915 
	C116.432686,284.565918 103.157494,283.383789 89.866295,282.507904 
	C70.926323,281.259796 51.990349,279.916443 33.036163,278.931274 
	C20.942375,278.302673 12.717222,284.301544 8.208186,295.309174 
	C4.280136,304.898438 3.268375,315.020477 4.412590,325.233978 
	C7.286428,350.886475 18.184444,359.816376 43.942719,358.031158 
	C44.939411,357.962067 45.942871,357.930084 46.929642,357.787262 
	C71.871864,354.176514 96.937653,352.636047 122.137054,353.149048 
	C124.944023,353.206177 127.761803,352.732300 131.382706,352.280487 
M322.304565,305.301636 
	C317.873413,282.334015 307.351471,277.591919 290.502808,278.983887 
	C270.250336,280.657013 249.948059,281.722992 229.670227,283.094147 
	C218.262405,283.865540 206.860336,284.722046 194.979492,285.574402 
	C199.326096,299.586700 201.028320,313.399780 199.926529,327.431610 
	C199.553635,332.180817 200.934006,333.897156 205.703232,334.341339 
	C241.360855,337.662415 276.998932,341.194244 312.638580,344.706421 
	C317.502197,345.185760 320.174042,343.017914 321.223938,338.397797 
	C323.649597,327.723541 324.243988,316.986664 322.304565,305.301636 
M112.707184,51.893314 
	C107.976616,50.563316 103.246048,49.233322 97.673752,47.666676 
	C98.788132,55.996708 100.403229,63.450390 100.635376,70.946899 
	C100.941673,80.837837 105.857452,87.114433 114.052032,91.518471 
	C149.347473,110.487419 184.180786,109.636032 218.233521,88.527885 
	C221.772552,86.334160 225.598129,82.216110 226.362915,78.403603 
	C228.270355,68.894798 228.490219,59.047478 229.492783,48.196018 
	C209.884171,53.556202 191.507629,58.825916 172.975861,63.477146 
	C168.171158,64.683067 162.630600,65.025879 157.859711,63.913586 
	C142.964539,60.440910 128.276001,56.082043 112.707184,51.893314 
M152.154022,301.076752 
	C160.584946,297.992889 165.854858,299.319794 169.649643,305.727386 
	C168.110626,306.833557 166.549606,307.955536 165.035156,309.044067 
	C161.028473,304.851349 157.169510,304.243103 154.486572,307.139130 
	C151.992294,309.831512 152.207901,317.757690 154.842056,320.207184 
	C157.858124,323.011841 161.086212,322.158081 165.756851,317.238190 
	C167.211334,318.148895 168.682373,319.069946 171.052536,320.554016 
	C168.266846,322.970123 166.300980,326.057739 163.868790,326.483856 
	C159.422134,327.262939 154.699692,326.467987 150.120972,326.330353 
	C148.373459,333.809326 146.421707,342.162354 144.376358,350.915955 
	C158.277206,350.915955 172.227921,351.030457 186.171265,350.762512 
	C187.806458,350.731110 190.372482,348.896362 190.845779,347.379333 
	C192.849487,340.956818 194.225494,334.338501 195.674698,328.428833 
	C192.744034,326.627228 190.862411,325.470551 188.071640,323.754944 
	C187.948196,324.018097 187.785629,325.009155 187.202179,325.501038 
	C184.029861,328.175476 180.037399,328.524658 177.067505,326.241486 
	C174.966507,324.626312 173.520706,321.154572 173.271591,318.378021 
	C172.926712,314.534088 176.185837,312.736023 179.625626,311.816895 
	C181.546249,311.303711 183.628250,311.183533 185.389832,310.357819 
	C186.631470,309.775879 187.456543,308.305115 188.467575,307.231171 
	C187.139145,306.499359 185.659485,304.974365 184.512253,305.193085 
	C181.714462,305.726410 179.070648,307.067566 176.200195,308.145264 
	C175.443848,306.973145 174.655518,305.751465 173.894791,304.572571 
	C179.308090,299.156830 185.768005,298.139526 193.070801,301.544922 
	C193.070801,300.132324 193.191864,298.795654 193.050568,297.487305 
	C192.298599,290.524445 189.394241,285.443573 185.421661,285.380981 
	C171.369904,285.159546 157.312515,285.294708 143.006409,285.294708 
	C145.015549,291.661346 146.839523,297.441223 148.703232,303.346985 
	C149.593582,302.744720 150.543503,302.102142 152.154022,301.076752 
M158.937469,201.223709 
	C156.774521,206.947632 155.132019,212.943405 152.319504,218.328033 
	C148.639542,225.373398 147.687943,231.937531 151.656860,239.158783 
	C154.856171,244.979767 157.383316,251.166840 160.366974,257.112030 
	C161.111908,258.596375 162.467224,259.774323 163.541992,261.093109 
	C164.976166,259.820251 166.909271,258.812927 167.753830,257.226257 
	C170.642609,251.799072 173.047333,246.116928 175.825424,240.627563 
	C179.832855,232.709061 179.431747,225.339874 175.193176,217.355896 
	C172.242142,211.797165 170.999771,205.253845 169.519516,199.025482 
	C168.811890,196.047989 169.777832,193.310944 173.427277,191.977814 
	C177.338165,190.549164 178.790863,187.172256 178.225311,183.095642 
	C177.649734,178.946945 175.036942,176.334457 171.035187,175.892075 
	C166.594589,175.401184 162.045685,175.339645 157.590683,175.688309 
	C153.372055,176.018478 150.501663,178.625778 149.837250,182.945862 
	C149.221725,186.948196 150.605057,190.381119 154.466843,191.980911 
	C158.472824,193.640457 159.407150,196.557571 158.937469,201.223709 
M284.445404,348.097321 
	C259.402191,345.896820 234.362717,343.651855 209.311035,341.552643 
	C206.213593,341.293091 202.719940,341.045624 200.025574,342.213257 
	C197.942368,343.116058 196.107513,346.092896 195.615738,348.450806 
	C195.410263,349.435974 198.831039,351.475861 200.868195,352.517853 
	C202.079926,353.137695 203.807739,352.741638 205.302872,352.815338 
	C225.420853,353.806885 245.542740,354.726685 265.654907,355.824707 
	C275.950073,356.386780 286.219269,357.630096 296.516479,357.870972 
	C302.710876,358.015900 308.806885,356.441254 313.979126,352.778137 
	C313.947906,352.275055 313.916718,351.772003 313.885529,351.268951 
	C304.376312,350.229462 294.867096,349.190002 284.445404,348.097321 
M268.329102,113.128784 
	C267.664185,110.555786 266.947205,107.994919 266.344635,105.407402 
	C264.814819,98.838112 262.263855,92.312340 266.498291,85.671921 
	C267.135223,84.673119 266.252075,82.597900 265.863770,81.073685 
	C264.910278,77.331322 263.137054,73.654839 262.948700,69.889076 
	C262.500549,60.929653 262.808472,51.933666 262.737000,42.953041 
	C262.723785,41.294758 262.363495,39.639233 262.163422,37.982433 
	C261.486298,37.912937 260.809143,37.843437 260.132019,37.773941 
	C259.473022,40.468868 258.323425,43.150131 258.247925,45.861305 
	C258.030304,53.673000 258.547150,61.511459 258.166718,69.309700 
	C257.972137,73.298584 256.429138,77.214088 255.588348,81.182411 
	C255.198181,83.023834 254.847824,84.907005 254.794571,86.780212 
	C254.636917,92.324486 255.083115,97.925407 254.443283,103.404945 
	C253.850891,108.478432 252.104553,113.411003 250.981140,118.431320 
	C250.430496,120.891975 251.086792,122.827209 254.065170,122.861687 
	C259.336304,122.922714 264.608673,122.878799 270.549988,122.878799 
	C269.776398,119.361488 269.178802,116.644279 268.329102,113.128784 
M180.058395,320.359497 
	C182.103851,320.823944 185.072754,322.340179 185.997559,321.528229 
	C187.780777,319.962585 188.408997,317.081390 189.516113,314.745636 
	C189.053406,314.424652 188.590698,314.103638 188.127991,313.782623 
	C185.611282,316.072662 180.073669,313.458435 180.058395,320.359497 
z"/>
<path fill="#212121" opacity="1.000000" stroke="none" 
	d="
M157.444168,373.000000 
	C155.495758,364.900787 149.317749,360.747223 143.011658,356.701813 
	C143.047623,356.199829 143.083588,355.697876 143.119553,355.195892 
	C149.104599,355.195892 155.089676,355.181427 161.074646,355.199921 
	C167.216385,355.218933 173.372803,355.551910 179.495682,355.230621 
	C186.065033,354.885895 190.369553,357.310486 192.210510,363.731842 
	C193.028900,366.586426 193.840912,369.442810 194.827911,372.649170 
	C193.611115,373.000000 192.222214,373.000000 190.373962,372.646484 
	C186.959702,370.792206 184.004044,369.292908 181.050049,367.790375 
	C170.365860,362.355682 170.366074,362.355286 165.000000,373.000000 
	C162.629440,373.000000 160.258896,373.000000 157.444168,373.000000 
z"/>
<path fill="#F2F2F2" opacity="1.000000" stroke="none" 
	d="
M165.468643,373.000000 
	C170.366074,362.355286 170.365860,362.355682 181.050049,367.790375 
	C184.004044,369.292908 186.959702,370.792206 189.957306,372.646484 
	C181.979095,373.000000 173.958191,373.000000 165.468643,373.000000 
z"/>
<path fill="#181818" opacity="1.000000" stroke="none" 
	d="
M130.396637,209.630508 
	C139.602875,227.384415 148.617569,244.818069 157.648392,262.243378 
	C158.181824,263.272705 158.741760,264.318085 159.464981,265.214294 
	C163.567734,270.298645 166.224213,270.086212 169.241547,264.321075 
	C180.504837,242.800613 191.685699,221.236969 202.961151,199.722870 
	C208.231888,189.666061 214.747513,187.281784 225.246078,191.993301 
	C250.514786,203.333313 267.217804,222.519302 275.825043,248.696579 
	C277.680481,254.339554 278.544861,260.344147 279.482239,266.243134 
	C280.407043,272.063019 279.142517,273.442261 273.380524,273.926544 
	C225.867706,277.919830 178.284241,280.003906 130.613602,278.121704 
	C105.325172,277.123169 80.066010,275.370850 54.797241,273.896942 
	C49.367950,273.580261 48.028267,272.154907 48.725113,266.581024 
	C53.029758,232.149231 70.935440,207.380447 102.211769,192.444656 
	C105.386871,190.928406 109.304375,190.620056 112.911842,190.439285 
	C117.993896,190.184677 121.805779,192.569199 124.077850,197.312317 
	C126.017235,201.360947 128.157349,205.313431 130.396637,209.630508 
z"/>
<path fill="#191919" opacity="1.000000" stroke="none" 
	d="
M190.845306,7.107437 
	C224.013748,13.558132 256.758453,19.941055 289.503143,26.323978 
	C289.479950,26.899406 289.456757,27.474836 289.433533,28.050264 
	C284.533142,29.386448 279.647247,30.778646 274.729828,32.048855 
	C256.201508,36.834835 237.659348,41.567154 219.129532,46.347317 
	C207.265625,49.407864 195.236816,51.969799 183.602036,55.742451 
	C168.927811,60.500664 154.853500,58.850952 140.452850,54.718079 
	C127.378929,50.965973 113.976082,48.376801 100.812927,44.914894 
	C81.574326,39.855145 62.413960,34.496689 43.242908,29.183775 
	C41.766838,28.774710 40.469604,27.720324 37.779732,26.250168 
	C50.695942,23.836945 62.107941,21.773705 73.491501,19.563980 
	C99.634773,14.489173 125.803833,9.534645 151.881577,4.140439 
	C163.912659,1.651798 175.380905,4.188995 186.980637,6.426588 
	C188.124466,6.647233 189.274460,6.836067 190.845306,7.107437 
z"/>
<path fill="#181818" opacity="1.000000" stroke="none" 
	d="
M202.124588,158.156250 
	C180.376175,173.088638 157.432190,176.015228 134.514603,163.484375 
	C111.372421,150.830734 100.607819,130.066147 101.785988,103.478836 
	C101.910988,100.657814 102.150375,97.824318 102.600204,95.039169 
	C103.366302,90.295723 104.157692,90.305801 108.400940,92.462814 
	C117.685623,97.182587 126.792313,102.857697 136.674896,105.682777 
	C166.437607,114.190910 194.610046,109.781090 220.413345,92.188858 
	C221.098373,91.721817 221.777939,91.242760 222.493210,90.826225 
	C222.760788,90.670403 223.123138,90.677330 223.443359,90.615196 
	C230.567749,107.564621 225.757355,140.103333 202.124588,158.156250 
z"/>
<path fill="#1E1E1E" opacity="1.000000" stroke="none" 
	d="
M130.978638,352.392578 
	C127.761803,352.732300 124.944023,353.206177 122.137054,353.149048 
	C96.937653,352.636047 71.871864,354.176514 46.929642,357.787262 
	C45.942871,357.930084 44.939411,357.962067 43.942719,358.031158 
	C18.184444,359.816376 7.286428,350.886475 4.412590,325.233978 
	C3.268375,315.020477 4.280136,304.898438 8.208186,295.309174 
	C12.717222,284.301544 20.942375,278.302673 33.036163,278.931274 
	C51.990349,279.916443 70.926323,281.259796 89.866295,282.507904 
	C103.157494,283.383789 116.432686,284.565918 129.734894,285.181915 
	C135.418015,285.445099 138.453064,287.883026 140.291870,293.118713 
	C143.929169,303.475464 145.638794,314.044983 145.070786,324.992371 
	C144.775757,330.678314 143.200684,332.423645 137.633591,332.953552 
	C112.606804,335.335724 87.577255,337.688995 62.546364,340.027710 
	C54.758644,340.755341 46.974934,341.757843 39.169277,342.008545 
	C26.666809,342.410034 19.799759,335.501099 20.282066,322.984741 
	C20.491476,317.550262 21.820724,312.158966 22.642597,306.739807 
	C25.892353,305.975525 27.902014,306.438507 27.937706,309.995636 
	C27.944342,310.656830 28.059299,311.324371 28.190145,311.975769 
	C29.562035,318.805206 33.010296,322.777863 37.523472,322.750183 
	C42.215336,322.721375 46.523457,317.779327 47.280838,311.109894 
	C48.016048,304.635620 46.091175,298.853333 41.475048,294.236115 
	C35.873547,288.633270 28.267538,288.730865 22.205595,294.204285 
	C10.576642,304.704346 9.344132,329.814728 19.890583,341.417358 
	C24.934233,346.966095 31.171091,349.449982 38.664612,348.758362 
	C58.061462,346.968048 77.458893,345.183899 96.857750,343.415558 
	C110.121704,342.206421 123.387619,341.018494 136.655273,339.850830 
	C137.937241,339.737976 139.237747,339.835754 140.484100,339.835754 
	C141.088593,346.234222 138.422333,349.777557 130.978638,352.392578 
M108.135132,305.501770 
	C108.135132,300.079407 108.135132,294.657074 108.135132,289.059509 
	C105.444008,289.177399 103.521973,289.261597 101.278419,289.359863 
	C101.278419,293.858429 101.278419,297.976532 101.278419,302.270874 
	C93.949081,298.413361 88.515121,298.902008 84.937828,303.528137 
	C80.805748,308.871765 81.194153,319.883057 85.678894,324.537750 
	C89.469940,328.472443 94.697815,328.441833 99.201454,325.537994 
	C102.959824,326.321655 105.317474,326.813263 108.135117,327.400757 
	C108.135117,319.781555 108.135117,313.141418 108.135132,305.501770 
M64.486504,305.478638 
	C57.151623,305.412781 62.421062,300.239960 60.444386,297.161133 
	C66.544060,297.161133 71.788872,297.161133 77.020660,297.161133 
	C77.020660,294.941101 77.020660,293.228821 77.020660,291.471466 
	C69.095894,291.471466 61.529156,291.471466 53.813282,291.471466 
	C53.813282,303.378815 53.813282,314.965942 53.813282,326.698151 
	C61.899742,326.698151 69.788666,326.698151 77.913391,326.698151 
	C77.815529,324.656128 77.733032,322.934753 77.629700,320.778595 
	C71.727783,320.778595 66.324127,320.778595 61.014622,320.778595 
	C61.014622,317.506805 61.014622,314.702087 61.014622,311.352051 
	C65.734894,311.352051 70.306831,311.352051 75.027885,311.352051 
	C75.027885,309.198212 75.027885,307.592560 75.027885,305.479126 
	C71.714317,305.479126 68.586884,305.479126 64.486504,305.478638 
M122.225159,308.470551 
	C122.225159,305.710327 122.225159,302.950104 122.225159,300.271362 
	C119.610886,300.271362 117.682388,300.271362 115.580498,300.271362 
	C115.580498,306.976166 115.142464,313.469299 115.697815,319.876343 
	C116.311707,326.958710 124.059357,329.981476 129.914383,325.825378 
	C130.796249,325.199371 131.573471,324.425964 132.608414,323.541931 
	C133.013153,329.521515 136.707764,326.135803 138.952988,326.833038 
	C138.952988,317.668549 138.952988,308.938385 138.952988,300.265381 
	C136.677429,300.265381 134.753738,300.265381 132.633820,300.265381 
	C132.542267,301.302673 132.426453,302.107269 132.407455,302.914154 
	C132.297714,307.571838 132.398285,312.244019 132.053391,316.883453 
	C131.804352,320.233398 129.441284,321.825836 126.200439,321.697357 
	C122.927589,321.567627 122.266350,319.151642 122.237350,316.430817 
	C122.212509,314.100006 122.227844,311.768738 122.225159,308.470551 
z"/>
<path fill="#1B1B1B" opacity="1.000000" stroke="none" 
	d="
M322.386810,305.727905 
	C324.243988,316.986664 323.649597,327.723541 321.223938,338.397797 
	C320.174042,343.017914 317.502197,345.185760 312.638580,344.706421 
	C276.998932,341.194244 241.360855,337.662415 205.703232,334.341339 
	C200.934006,333.897156 199.553635,332.180817 199.926529,327.431610 
	C201.028320,313.399780 199.326096,299.586700 194.979492,285.574402 
	C206.860336,284.722046 218.262405,283.865540 229.670227,283.094147 
	C249.948059,281.722992 270.250336,280.657013 290.502808,278.983887 
	C307.351471,277.591919 317.873413,282.334015 322.386810,305.727905 
M239.294281,304.990753 
	C238.559357,307.849335 237.320694,310.685150 237.190247,313.571045 
	C236.881226,320.406647 240.443100,325.424622 246.057648,326.977417 
	C252.961594,328.886780 259.440491,326.339386 262.219818,320.622711 
	C265.421173,314.037994 263.591919,305.332611 258.245789,301.710144 
	C252.675308,297.935669 245.060745,299.039154 239.294281,304.990753 
M270.053314,301.859161 
	C270.053314,310.125366 270.053314,318.391602 270.053314,326.740967 
	C272.557343,326.740967 274.610321,326.740967 277.055603,326.740967 
	C277.055603,321.352356 276.867920,316.219238 277.118835,311.107635 
	C277.298584,307.446075 279.564880,305.269592 283.323914,305.375763 
	C287.274628,305.487335 287.447968,308.491577 287.446777,311.461548 
	C287.444763,316.565430 287.446228,321.669281 287.446228,326.654114 
	C290.123047,326.654114 292.182526,326.654114 294.208740,326.654114 
	C294.208740,320.145355 294.445618,313.986389 294.142609,307.854156 
	C293.834961,301.628479 289.816437,298.578400 283.662781,299.792877 
	C281.353180,300.248718 279.238098,301.689972 277.125305,302.641022 
	C275.956604,298.143829 272.927124,299.930176 270.053314,301.859161 
M211.143280,295.523621 
	C209.043976,294.999939 206.944687,294.476227 204.572739,293.884521 
	C204.328140,296.617218 204.197678,298.074554 204.067230,299.531921 
	C202.266876,300.187866 200.220093,301.504791 200.341064,302.577148 
	C200.511871,304.091034 202.285965,305.424011 204.239548,307.954742 
	C204.239548,310.017822 204.137497,313.663177 204.259369,317.301056 
	C204.578506,326.827179 211.095139,330.322083 219.788589,325.393524 
	C219.272964,323.959015 218.738968,322.473328 218.229340,321.055450 
	C211.341705,321.490570 211.185303,321.337646 211.173752,314.361664 
	C211.169113,311.562897 211.172989,308.764160 211.172989,305.816833 
	C213.945053,305.570160 216.332870,305.357727 218.740570,305.143494 
	C218.740570,303.291412 218.740570,301.854553 218.740570,300.829102 
	C216.574203,298.200287 210.682205,303.208710 211.143280,295.523621 
M224.736069,300.154205 
	C224.736069,308.975555 224.736069,317.796936 224.736069,326.736084 
	C226.557816,326.736084 228.600952,326.736084 230.732407,326.736084 
	C230.732407,317.774139 230.732407,309.076599 230.732407,300.032104 
	C228.890503,300.032104 227.274948,300.032104 224.736069,300.154205 
M224.700500,295.910706 
	C227.165527,297.593445 229.572769,297.397888 231.003372,294.817108 
	C231.626541,293.692871 231.462601,291.008942 230.676697,290.475006 
	C229.297256,289.537842 226.162354,288.876251 225.561035,289.597839 
	C224.421021,290.965881 224.552399,293.393402 224.700500,295.910706 
z"/>
<path fill="#191919" opacity="1.000000" stroke="none" 
	d="
M113.107269,51.980011 
	C128.276001,56.082043 142.964539,60.440910 157.859711,63.913586 
	C162.630600,65.025879 168.171158,64.683067 172.975861,63.477146 
	C191.507629,58.825916 209.884171,53.556202 229.492783,48.196018 
	C228.490219,59.047478 228.270355,68.894798 226.362915,78.403603 
	C225.598129,82.216110 221.772552,86.334160 218.233521,88.527885 
	C184.180786,109.636032 149.347473,110.487419 114.052032,91.518471 
	C105.857452,87.114433 100.941673,80.837837 100.635376,70.946899 
	C100.403229,63.450390 98.788132,55.996708 97.673752,47.666676 
	C103.246048,49.233322 107.976616,50.563316 113.107269,51.980011 
z"/>
<path fill="#1D1D1D" opacity="1.000000" stroke="none" 
	d="
M151.823730,301.268188 
	C150.543503,302.102142 149.593582,302.744720 148.703232,303.346985 
	C146.839523,297.441223 145.015549,291.661346 143.006409,285.294708 
	C157.312515,285.294708 171.369904,285.159546 185.421661,285.380981 
	C189.394241,285.443573 192.298599,290.524445 193.050568,297.487305 
	C193.191864,298.795654 193.070801,300.132324 193.070801,301.544922 
	C185.768005,298.139526 179.308090,299.156830 173.894791,304.572571 
	C174.655518,305.751465 175.443848,306.973145 176.200195,308.145264 
	C179.070648,307.067566 181.714462,305.726410 184.512253,305.193085 
	C185.659485,304.974365 187.139145,306.499359 188.467590,307.231171 
	C187.456543,308.305115 186.631470,309.775879 185.389832,310.357819 
	C183.628250,311.183533 181.546249,311.303711 179.625626,311.816895 
	C176.185837,312.736023 172.926712,314.534088 173.271591,318.378021 
	C173.520706,321.154572 174.966507,324.626312 177.067505,326.241486 
	C180.037399,328.524658 184.029861,328.175476 187.202179,325.501038 
	C187.785629,325.009155 187.948196,324.018097 188.071640,323.754944 
	C190.862411,325.470551 192.744034,326.627228 195.674698,328.428833 
	C194.225494,334.338501 192.849487,340.956818 190.845779,347.379333 
	C190.372482,348.896362 187.806458,350.731110 186.171265,350.762512 
	C172.227921,351.030457 158.277206,350.915955 144.376358,350.915955 
	C146.421707,342.162354 148.373459,333.809326 150.120972,326.330353 
	C154.699692,326.467987 159.422134,327.262939 163.868790,326.483856 
	C166.300980,326.057739 168.266846,322.970123 171.052536,320.554016 
	C168.682373,319.069946 167.211334,318.148895 165.756851,317.238190 
	C161.086212,322.158081 157.858124,323.011841 154.842056,320.207184 
	C152.207901,317.757690 151.992294,309.831512 154.486572,307.139130 
	C157.169510,304.243103 161.028473,304.851349 165.035156,309.044067 
	C166.549606,307.955536 168.110626,306.833557 169.649643,305.727386 
	C165.854858,299.319794 160.584946,297.992889 151.823730,301.268188 
z"/>
<path fill="#1B1B1B" opacity="1.000000" stroke="none" 
	d="
M158.986237,200.805054 
	C159.407150,196.557571 158.472824,193.640457 154.466843,191.980911 
	C150.605057,190.381119 149.221725,186.948196 149.837250,182.945862 
	C150.501663,178.625778 153.372055,176.018478 157.590683,175.688309 
	C162.045685,175.339645 166.594589,175.401184 171.035187,175.892075 
	C175.036942,176.334457 177.649734,178.946945 178.225311,183.095642 
	C178.790863,187.172256 177.338165,190.549164 173.427277,191.977814 
	C169.777832,193.310944 168.811890,196.047989 169.519516,199.025482 
	C170.999771,205.253845 172.242142,211.797165 175.193176,217.355896 
	C179.431747,225.339874 179.832855,232.709061 175.825424,240.627563 
	C173.047333,246.116928 170.642609,251.799072 167.753830,257.226257 
	C166.909271,258.812927 164.976166,259.820251 163.541992,261.093109 
	C162.467224,259.774323 161.111908,258.596375 160.366974,257.112030 
	C157.383316,251.166840 154.856171,244.979767 151.656860,239.158783 
	C147.687943,231.937531 148.639542,225.373398 152.319504,218.328033 
	C155.132019,212.943405 156.774521,206.947632 158.986237,200.805054 
z"/>
<path fill="#202020" opacity="1.000000" stroke="none" 
	d="
M284.901642,348.123901 
	C294.867096,349.190002 304.376312,350.229462 313.885529,351.268951 
	C313.916718,351.772003 313.947906,352.275055 313.979126,352.778137 
	C308.806885,356.441254 302.710876,358.015900 296.516479,357.870972 
	C286.219269,357.630096 275.950073,356.386780 265.654907,355.824707 
	C245.542740,354.726685 225.420853,353.806885 205.302872,352.815338 
	C203.807739,352.741638 202.079926,353.137695 200.868195,352.517853 
	C198.831039,351.475861 195.410263,349.435974 195.615738,348.450806 
	C196.107513,346.092896 197.942368,343.116058 200.025574,342.213257 
	C202.719940,341.045624 206.213593,341.293091 209.311035,341.552643 
	C234.362717,343.651855 259.402191,345.896820 284.901642,348.123901 
z"/>
<path fill="#242424" opacity="1.000000" stroke="none" 
	d="
M268.455139,113.527924 
	C269.178802,116.644279 269.776398,119.361488 270.549988,122.878799 
	C264.608673,122.878799 259.336304,122.922714 254.065170,122.861687 
	C251.086792,122.827209 250.430496,120.891975 250.981140,118.431320 
	C252.104553,113.411003 253.850891,108.478432 254.443283,103.404945 
	C255.083115,97.925407 254.636917,92.324486 254.794571,86.780212 
	C254.847824,84.907005 255.198181,83.023834 255.588348,81.182411 
	C256.429138,77.214088 257.972137,73.298584 258.166718,69.309700 
	C258.547150,61.511459 258.030304,53.673000 258.247925,45.861305 
	C258.323425,43.150131 259.473022,40.468868 260.132019,37.773941 
	C260.809143,37.843437 261.486298,37.912937 262.163422,37.982433 
	C262.363495,39.639233 262.723785,41.294758 262.737000,42.953041 
	C262.808472,51.933666 262.500549,60.929653 262.948700,69.889076 
	C263.137054,73.654839 264.910278,77.331322 265.863770,81.073685 
	C266.252075,82.597900 267.135223,84.673119 266.498291,85.671921 
	C262.263855,92.312340 264.814819,98.838112 266.344635,105.407402 
	C266.947205,107.994919 267.664185,110.555786 268.455139,113.527924 
z"/>
<path fill="#242424" opacity="1.000000" stroke="none" 
	d="
M179.974838,319.948792 
	C180.073669,313.458435 185.611282,316.072662 188.127991,313.782623 
	C188.590698,314.103638 189.053406,314.424652 189.516113,314.745636 
	C188.408997,317.081390 187.780777,319.962585 185.997559,321.528229 
	C185.072754,322.340179 182.103851,320.823944 179.974838,319.948792 
z"/>
<path fill="#F5F5F5" opacity="1.000000" stroke="none" 
	d="
M108.135124,306.001526 
	C108.135117,313.141418 108.135117,319.781555 108.135117,327.400757 
	C105.317474,326.813263 102.959824,326.321655 99.201454,325.537994 
	C94.697815,328.441833 89.469940,328.472443 85.678894,324.537750 
	C81.194153,319.883057 80.805748,308.871765 84.937828,303.528137 
	C88.515121,298.902008 93.949081,298.413361 101.278419,302.270874 
	C101.278419,297.976532 101.278419,293.858429 101.278419,289.359863 
	C103.521973,289.261597 105.444008,289.177399 108.135132,289.059509 
	C108.135132,294.657074 108.135132,300.079407 108.135124,306.001526 
M100.993172,316.864105 
	C100.969933,314.551941 101.341805,312.148590 100.833961,309.948273 
	C100.002411,306.345337 97.412834,304.786652 93.704559,305.654388 
	C89.775429,306.573822 89.278763,309.847473 89.201294,313.039581 
	C89.115768,316.563568 89.322067,320.255493 93.681747,321.437408 
	C97.120949,322.369720 99.433121,320.814606 100.993172,316.864105 
z"/>
<path fill="#F6F6F6" opacity="1.000000" stroke="none" 
	d="
M64.972977,305.478882 
	C68.586884,305.479126 71.714317,305.479126 75.027885,305.479126 
	C75.027885,307.592560 75.027885,309.198212 75.027885,311.352051 
	C70.306831,311.352051 65.734894,311.352051 61.014622,311.352051 
	C61.014622,314.702087 61.014622,317.506805 61.014622,320.778595 
	C66.324127,320.778595 71.727783,320.778595 77.629700,320.778595 
	C77.733032,322.934753 77.815529,324.656128 77.913391,326.698151 
	C69.788666,326.698151 61.899742,326.698151 53.813282,326.698151 
	C53.813282,314.965942 53.813282,303.378815 53.813282,291.471466 
	C61.529156,291.471466 69.095894,291.471466 77.020660,291.471466 
	C77.020660,293.228821 77.020660,294.941101 77.020660,297.161133 
	C71.788872,297.161133 66.544060,297.161133 60.444386,297.161133 
	C62.421062,300.239960 57.151623,305.412781 64.972977,305.478882 
z"/>
<path fill="#F2F2F2" opacity="1.000000" stroke="none" 
	d="
M122.225281,308.954102 
	C122.227844,311.768738 122.212509,314.100006 122.237350,316.430817 
	C122.266350,319.151642 122.927589,321.567627 126.200439,321.697357 
	C129.441284,321.825836 131.804352,320.233398 132.053391,316.883453 
	C132.398285,312.244019 132.297714,307.571838 132.407455,302.914154 
	C132.426453,302.107269 132.542267,301.302673 132.633820,300.265381 
	C134.753738,300.265381 136.677429,300.265381 138.952988,300.265381 
	C138.952988,308.938385 138.952988,317.668549 138.952988,326.833038 
	C136.707764,326.135803 133.013153,329.521515 132.608414,323.541931 
	C131.573471,324.425964 130.796249,325.199371 129.914383,325.825378 
	C124.059357,329.981476 116.311707,326.958710 115.697815,319.876343 
	C115.142464,313.469299 115.580498,306.976166 115.580498,300.271362 
	C117.682388,300.271362 119.610886,300.271362 122.225159,300.271362 
	C122.225159,302.950104 122.225159,305.710327 122.225281,308.954102 
z"/>
<path fill="#F4F4F4" opacity="1.000000" stroke="none" 
	d="
M239.527008,304.689911 
	C245.060745,299.039154 252.675308,297.935669 258.245789,301.710144 
	C263.591919,305.332611 265.421173,314.037994 262.219818,320.622711 
	C259.440491,326.339386 252.961594,328.886780 246.057648,326.977417 
	C240.443100,325.424622 236.881226,320.406647 237.190247,313.571045 
	C237.320694,310.685150 238.559357,307.849335 239.527008,304.689911 
M254.056290,306.492188 
	C250.696075,304.718262 247.568024,304.772247 245.317886,308.161102 
	C243.185913,311.372040 243.965698,318.164581 246.459244,320.347717 
	C249.513428,323.021729 255.157440,321.865540 255.751266,317.912598 
	C256.277435,314.409973 255.072418,310.647247 254.056290,306.492188 
z"/>
<path fill="#F4F4F4" opacity="1.000000" stroke="none" 
	d="
M270.085083,301.399200 
	C272.927124,299.930176 275.956604,298.143829 277.125305,302.641022 
	C279.238098,301.689972 281.353180,300.248718 283.662781,299.792877 
	C289.816437,298.578400 293.834961,301.628479 294.142609,307.854156 
	C294.445618,313.986389 294.208740,320.145355 294.208740,326.654114 
	C292.182526,326.654114 290.123047,326.654114 287.446228,326.654114 
	C287.446228,321.669281 287.444763,316.565430 287.446777,311.461548 
	C287.447968,308.491577 287.274628,305.487335 283.323914,305.375763 
	C279.564880,305.269592 277.298584,307.446075 277.118835,311.107635 
	C276.867920,316.219238 277.055603,321.352356 277.055603,326.740967 
	C274.610321,326.740967 272.557343,326.740967 270.053314,326.740967 
	C270.053314,318.391602 270.053314,310.125366 270.085083,301.399200 
z"/>
<path fill="#F1F1F1" opacity="1.000000" stroke="none" 
	d="
M211.156464,295.973724 
	C210.682205,303.208710 216.574203,298.200287 218.740570,300.829102 
	C218.740570,301.854553 218.740570,303.291412 218.740570,305.143494 
	C216.332870,305.357727 213.945053,305.570160 211.172989,305.816833 
	C211.172989,308.764160 211.169113,311.562897 211.173752,314.361664 
	C211.185303,321.337646 211.341705,321.490570 218.229340,321.055450 
	C218.738968,322.473328 219.272964,323.959015 219.788589,325.393524 
	C211.095139,330.322083 204.578506,326.827179 204.259369,317.301056 
	C204.137497,313.663177 204.239548,310.017822 204.239548,307.954742 
	C202.285965,305.424011 200.511871,304.091034 200.341064,302.577148 
	C200.220093,301.504791 202.266876,300.187866 204.067230,299.531921 
	C204.197678,298.074554 204.328140,296.617218 204.572739,293.884521 
	C206.944687,294.476227 209.043976,294.999939 211.156464,295.973724 
z"/>
<path fill="#F7F7F7" opacity="1.000000" stroke="none" 
	d="
M225.197723,300.093140 
	C227.274948,300.032104 228.890503,300.032104 230.732407,300.032104 
	C230.732407,309.076599 230.732407,317.774139 230.732407,326.736084 
	C228.600952,326.736084 226.557816,326.736084 224.736069,326.736084 
	C224.736069,317.796936 224.736069,308.975555 225.197723,300.093140 
z"/>
<path fill="#EDEDED" opacity="1.000000" stroke="none" 
	d="
M224.428040,295.645752 
	C224.552399,293.393402 224.421021,290.965881 225.561035,289.597839 
	C226.162354,288.876251 229.297256,289.537842 230.676697,290.475006 
	C231.462601,291.008942 231.626541,293.692871 231.003372,294.817108 
	C229.572769,297.397888 227.165527,297.593445 224.428040,295.645752 
z"/>
<path fill="#1E1E1E" opacity="1.000000" stroke="none" 
	d="
M100.906715,317.269775 
	C99.433121,320.814606 97.120949,322.369720 93.681747,321.437408 
	C89.322067,320.255493 89.115768,316.563568 89.201294,313.039581 
	C89.278763,309.847473 89.775429,306.573822 93.704559,305.654388 
	C97.412834,304.786652 100.002411,306.345337 100.833961,309.948273 
	C101.341805,312.148590 100.969933,314.551941 100.906715,317.269775 
z"/>
<path fill="#202020" opacity="1.000000" stroke="none" 
	d="
M254.343964,306.745789 
	C255.072418,310.647247 256.277435,314.409973 255.751266,317.912598 
	C255.157440,321.865540 249.513428,323.021729 246.459244,320.347717 
	C243.965698,318.164581 243.185913,311.372040 245.317886,308.161102 
	C247.568024,304.772247 250.696075,304.718262 254.343964,306.745789 
z"/>
</svg>